<?xml version="1.0" encoding="UTF-8" standalone="no"?>
<!-- Created with Inkscape (http://www.inkscape.org/) -->

<svg
   xmlns:dc="http://purl.org/dc/elements/1.1/"
   xmlns:cc="http://creativecommons.org/ns#"
   xmlns:rdf="http://www.w3.org/1999/02/22-rdf-syntax-ns#"
   xmlns:svg="http://www.w3.org/2000/svg"
   xmlns="http://www.w3.org/2000/svg"
   xmlns:sodipodi="http://sodipodi.sourceforge.net/DTD/sodipodi-0.dtd"
   xmlns:inkscape="http://www.inkscape.org/namespaces/inkscape"
   width="40"
   height="70"
   id="svg2"
   version="1.1"
   inkscape:version="0.48.4 r9939"
   sodipodi:docname="New document 1">
  <defs
     id="defs4" />
  <sodipodi:namedview
     id="base"
     pagecolor="#ffffff"
     bordercolor="#666666"
     borderopacity="1.0"
     inkscape:pageopacity="0.0"
     inkscape:pageshadow="2"
     inkscape:zoom="13.714286"
     inkscape:cx="20"
     inkscape:cy="35"
     inkscape:document-units="px"
     inkscape:current-layer="layer1"
     showgrid="true">
    <inkscape:grid
       type="xygrid"
       id="grid2985"
       empspacing="5"
       visible="true"
       enabled="true"
       snapvisiblegridlinesonly="true"
       spacingx="5px"
       spacingy="5px" />
  </sodipodi:namedview>
  <metadata
     id="metadata7">
    <rdf:RDF>
      <cc:Work
         rdf:about="">
        <dc:format>image/svg+xml</dc:format>
        <dc:type
           rdf:resource="http://purl.org/dc/dcmitype/StillImage" />
        <dc:title></dc:title>
      </cc:Work>
    </rdf:RDF>
  </metadata>
  <g
     inkscape:label="Layer 1"
     inkscape:groupmode="layer"
     id="layer1"
     transform="translate(0,-982.36218)">
    <path
       style="fill:#009c00;fill-opacity:1;stroke:none"
       d="M 2.5,985.54964 0.5,987.54964 0.5,1012.1434 5,1016.6434 9.5,1012.1434 9.5,992.54964 2.5,985.54964 z"
       id="path2987"
       inkscape:connector-curvature="0" />
    <path
       style="fill:#009c00;fill-opacity:1;stroke:none"
       d="M 37.5,985.54964 30.5,992.54964 30.5,1012.1434 35,1016.6434 39.5,1012.1434 39.5,987.54964 37.5,985.54964 z"
       id="path2987-1"
       inkscape:connector-curvature="0" />
    <path
       style="fill:#009c00;fill-opacity:1;stroke:none"
       d="M 5.1875,982.86214 3.1875,984.86214 10.21875,991.86214 29.78125,991.86214 36.8125,984.86214 34.8125,982.86214 5.1875,982.86214 z"
       id="path2987-7"
       inkscape:connector-curvature="0" />
    <path
       style="fill:#009c00;fill-opacity:1;stroke:none"
       d="M 5,1018.0497 0.5,1022.5497 0.5,1047.1434 2.5,1049.1434 9.5,1042.1434 9.5,1022.5497 5,1018.0497 z"
       id="path2987-4"
       inkscape:connector-curvature="0" />
    <path
       style="fill:#009c00;fill-opacity:1;stroke:none"
       d="M 35,1018.0497 30.5,1022.5497 30.5,1042.1434 37.5,1049.1434 39.5,1047.1434 39.5,1022.5497 35,1018.0497 z"
       id="path2987-1-0"
       inkscape:connector-curvature="0" />
    <path
       style="fill:#009c00;fill-opacity:1;stroke:none"
       d="M 10.1875,1012.8621 5.6875,1017.3622 10.21875,1021.8622 29.78125,1021.8622 34.3125,1017.3622 29.8125,1012.8621 10.1875,1012.8621 z"
       id="path2987-7-9"
       inkscape:connector-curvature="0" />
    <path
       style="fill:#009c00;fill-opacity:1;stroke:none"
       d="M 10.1875,1042.8622 3.1875,1049.8622 5.21875,1051.8622 34.78125,1051.8622 36.8125,1049.8622 29.8125,1042.8622 10.1875,1042.8622 z"
       id="path2987-7-4"
       inkscape:connector-curvature="0" />
  </g>
</svg>
